<svg xmlns="http://www.w3.org/2000/svg" viewBox="0 0 1160 760" width="1160" height="760">
  <defs>
    <marker id="arrowA" markerWidth="10" markerHeight="7" refX="9" refY="3.5" orient="auto">
      <polygon points="0 0, 10 3.5, 0 7" fill="#7c3aed"/>
    </marker>
    <marker id="arrowB" markerWidth="10" markerHeight="7" refX="9" refY="3.5" orient="auto">
      <polygon points="0 0, 10 3.5, 0 7" fill="#10b981"/>
    </marker>
    <marker id="arrowC" markerWidth="10" markerHeight="7" refX="9" refY="3.5" orient="auto">
      <polygon points="0 0, 10 3.5, 0 7" fill="#2563eb"/>
    </marker>
    <marker id="arrowE" markerWidth="10" markerHeight="7" refX="9" refY="3.5" orient="auto">
      <polygon points="0 0, 10 3.5, 0 7" fill="#f97316"/>
    </marker>
    <marker id="arrowF" markerWidth="10" markerHeight="7" refX="9" refY="3.5" orient="auto">
      <polygon points="0 0, 10 3.5, 0 7" fill="#7c3aed"/>
    </marker>
    <marker id="arrowG" markerWidth="10" markerHeight="7" refX="9" refY="3.5" orient="auto">
      <polygon points="0 0, 10 3.5, 0 7" fill="#ef4444"/>
    </marker>
    <marker id="arrowH" markerWidth="10" markerHeight="7" refX="9" refY="3.5" orient="auto">
      <polygon points="0 0, 10 3.5, 0 7" fill="#6b7280"/>
    </marker>
    <filter id="shadowSoft" x="-20%" y="-20%" width="140%" height="160%">
      <feDropShadow dx="0" dy="3" stdDeviation="6" flood-color="#0f172a" flood-opacity="0.12"/>
    </filter>
    <filter id="shadowGlass" x="-20%" y="-20%" width="140%" height="160%">
      <feDropShadow dx="0" dy="10" stdDeviation="16" flood-color="#020617" flood-opacity="0.28"/>
    </filter>
    <style>
    text { font-family: 'Helvetica Neue', Helvetica, Arial, 'PingFang SC', 'Microsoft YaHei', 'Microsoft JhengHei', 'SimHei', sans-serif; }
    .title { font-size: 30px; font-weight: 700; fill: #111827; }
    .subtitle { font-size: 14px; font-weight: 500; fill: #6b7280; }
    .section { font-size: 13px; font-weight: 700; fill: #2563eb; letter-spacing: 1.4px; }
    .section-sub { font-size: 12px; font-weight: 500; fill: #94a3b8; }
    .node-title { font-size: 18px; font-weight: 700; fill: #111827; }
    .node-sub { font-size: 12px; font-weight: 500; fill: #6b7280; }
    .node-type { font-size: 12px; font-weight: 700; fill: #9ca3af; letter-spacing: 0.08em; }
    .arrow-label { font-size: 12px; font-weight: 600; fill: #6b7280; }
    .legend { font-size: 12px; font-weight: 500; fill: #6b7280; }
    .footnote { font-size: 12px; font-weight: 500; fill: #94a3b8; }
    </style>
  </defs>
  <rect width="1160.0" height="760.0" fill="#ffffff"/>
  <text x="580.0" y="56" text-anchor="middle" class="title">Agent Decision Flow</text>
  <text x="580.0" y="82" text-anchor="middle" class="subtitle">How the support agent combines FAQ, structured intent, business tools, and human escalation</text>
  <rect x="40.0" y="110.0" width="1080.0" height="130.0" rx="16.0" fill="none" stroke="#dbe5f1" stroke-width="1.4" stroke-dasharray="6 5"/>
  <text x="58.0" y="134.0" class="section">INPUT + MEMORY</text>
  <rect x="40.0" y="260.0" width="1080.0" height="200.0" rx="16.0" fill="none" stroke="#dbe5f1" stroke-width="1.4" stroke-dasharray="6 5"/>
  <text x="58.0" y="284.0" class="section">DECISION CORE</text>
  <rect x="40.0" y="480.0" width="1080.0" height="180.0" rx="16.0" fill="none" stroke="#dbe5f1" stroke-width="1.4" stroke-dasharray="6 5"/>
  <text x="58.0" y="504.0" class="section">BUSINESS EXECUTION</text>
  <rect x="40.0" y="680.0" width="1080.0" height="60.0" rx="16.0" fill="none" stroke="#dbe5f1" stroke-width="1.4" stroke-dasharray="6 5"/>
  <text x="58.0" y="704.0" class="section">OUTPUT</text>
  <path d="M 157.0,198.0 L 160.0,232.0 L 160.0,268.0 L 536.0,268.0 L 536.0,294.0" fill="none" stroke="#2563eb" stroke-width="2.4" marker-end="url(#arrowC)"/>
  <path d="M 417.0,202.0 L 417.0,222.4 L 536.0,222.4 L 536.0,294.0" fill="none" stroke="#f97316" stroke-width="2.4" marker-end="url(#arrowE)"/>
  <path d="M 713.0,212.0 L 713.0,232.4 L 536.0,232.4 L 536.0,294.0" fill="none" stroke="#10b981" stroke-width="2.4" marker-end="url(#arrowB)" stroke-dasharray="6,4"/>
  <path d="M 448.0,355.0 L 320.0,355.0" fill="none" stroke="#7c3aed" stroke-width="2.4" marker-end="url(#arrowA)"/>
  <path d="M 624.0,355.0 L 782.0,355.0" fill="none" stroke="#2563eb" stroke-width="2.4" marker-end="url(#arrowC)"/>
  <path d="M 782.0,355.0 L 782.0,432.0 L 220.0,432.0 L 220.0,536.0 L 219.0,536.0" fill="none" stroke="#f97316" stroke-width="2.4" marker-end="url(#arrowE)"/>
  <path d="M 877.0,398.0 L 877.0,446.0 L 524.0,446.0 L 524.0,536.0" fill="none" stroke="#ef4444" stroke-width="2.4" marker-end="url(#arrowG)"/>
  <path d="M 618.0,575.0 L 736.0,575.0" fill="none" stroke="#ef4444" stroke-width="2.4" marker-end="url(#arrowG)"/>
  <path d="M 219.0,614.0 L 220.0,632.0 L 220.0,710.0 L 448.0,710.0 L 448.0,711.0" fill="none" stroke="#10b981" stroke-width="2.4" marker-end="url(#arrowB)"/>
  <path d="M 835.0,614.0 L 836.0,632.0 L 836.0,710.0 L 636.0,710.0 L 636.0,711.0" fill="none" stroke="#7c3aed" stroke-width="2.4" marker-end="url(#arrowA)"/>
  <path d="M 92.0 142.0 L 222.0 142.0 Q 232.0 142.0 232.0 152.0 L 232.0 188.0 Q 232.0 198.0 222.0 198.0 L 108.0 198.0 L 94.0 216.0 L 98.0 198.0 L 92.0 198.0 Q 82.0 198.0 82.0 188.0 L 82.0 152.0 Q 82.0 142.0 92.0 142.0 Z" fill="#eff6ff" stroke="#93c5fd" stroke-width="2.0"/>
  <text x="157.0" y="160.0" text-anchor="middle" class="node-type">PROMPT</text>
  <text x="157.0" y="176.0" text-anchor="middle" class="node-title">User message</text>
  <path d="M 332.0 138.0 L 487.92 138.0 L 502.0 152.08 L 502.0 202.0 L 332.0 202.0 Z" fill="#f0fdf4" stroke="#86efac" stroke-width="2.0" filter="url(#shadowSoft)"/>
  <path d="M 487.92 138.0 L 487.92 152.08 L 502.0 152.08" fill="none" stroke="#86efac" stroke-width="2.0"/>
  <line x1="350.0" y1="164.0" x2="474.0" y2="164.0" stroke="#c4b5fd" stroke-width="1.2"/>
  <line x1="350.0" y1="178.0" x2="474.0" y2="178.0" stroke="#c4b5fd" stroke-width="1.2"/>
  <line x1="350.0" y1="192.0" x2="474.0" y2="192.0" stroke="#c4b5fd" stroke-width="1.2"/>
  <line x1="350.0" y1="206.0" x2="474.0" y2="206.0" stroke="#c4b5fd" stroke-width="1.2"/>
  <text x="417.0" y="156.0" text-anchor="middle" class="node-type">LOCAL KB</text>
  <text x="417.0" y="228.0" text-anchor="middle" class="node-title">FAQ context</text>
  <ellipse cx="713.0" cy="138.5" rx="42.5" ry="10.5" fill="#eff6ff" stroke="#93c5fd" stroke-width="2.2"/>
  <rect x="628.0" y="138.5" width="170.0" height="63.0" fill="#eff6ff" stroke="#93c5fd" stroke-width="2.2"/>
  <ellipse cx="713.0" cy="201.5" rx="42.5" ry="10.5" fill="#eff6ff" stroke="#93c5fd" stroke-width="2.2"/>
  <ellipse cx="713.0" cy="159.92000000000002" rx="42.5" ry="10.5" fill="none" stroke="#93c5fd" stroke-opacity="0.45" stroke-width="1.2"/>
  <ellipse cx="713.0" cy="178.4" rx="42.5" ry="10.5" fill="none" stroke="#93c5fd" stroke-opacity="0.25" stroke-width="1.2"/>
  <text x="713.0" y="164.0" text-anchor="middle" class="node-title">User context</text>
  <text x="713.0" y="188.0" text-anchor="middle" class="node-sub">users / orders / subscriptions</text>
  <rect x="448.0" y="294.0" width="176.0" height="122.0" rx="10.0" fill="#ffffff" stroke="#d1d5db" stroke-width="2.0" filter="url(#shadowSoft)"/>
  <rect x="494.0" y="325.0" width="84" height="84" rx="18" fill="#1e293b" stroke="#334155" stroke-width="1.8" filter="url(#shadowSoft)"/>
  <rect x="510.0" y="341.0" width="52" height="22" rx="6" fill="#0f172a" stroke="#475569" stroke-width="1.2"/>
  <circle cx="524.0" cy="352.0" r="5" fill="#c4b5fd"/>
  <circle cx="548.0" cy="352.0" r="5" fill="#c4b5fd"/>
  <rect x="522.0" y="371.0" width="28" height="6" rx="3" fill="#334155"/>
  <line x1="536.0" y1="321.0" x2="536.0" y2="307.0" stroke="#c4b5fd" stroke-width="3"/>
  <circle cx="536.0" cy="303.0" r="5" fill="#c4b5fd"/>
  <text x="536.0" y="438.0" text-anchor="middle" class="node-title">Support Agent</text>
  <text x="536.0" y="458.0" text-anchor="middle" class="node-sub">PydanticAI + fallback rules</text>
  <rect x="108.0" y="314.0" width="212.0" height="82.0" rx="10.0" fill="#faf5ff" stroke="#c4b5fd" stroke-width="2.0" filter="url(#shadowSoft)"/>
  <rect x="114.0" y="320.0" width="200.0" height="70.0" rx="7.0" fill="none" stroke="#c4b5fd" stroke-width="1.2" opacity="0.65"/>
  <text x="214.0" y="332.0" text-anchor="middle" class="node-type">INTENT / RISK / ACTION</text>
  <text x="214.0" y="361.0" text-anchor="middle" class="node-title">Structured decision</text>
  <path d="M 804.0 312.0 L 950.0 312.0 L 972.0 355.0 L 950.0 398.0 L 804.0 398.0 L 782.0 355.0 Z" fill="#fff7ed" stroke="#fdba74" stroke-width="2.0" filter="url(#shadowSoft)"/>
  <text x="877.0" y="330.0" text-anchor="middle" class="node-type">ROUTER</text>
  <text x="877.0" y="361.0" text-anchor="middle" class="node-title">Need tools or human?</text>
  <rect x="104.0" y="536.0" width="230.0" height="78.0" rx="10.0" fill="#eff6ff" stroke="#93c5fd" stroke-width="1.8"/>
  <text x="219.0" y="554.0" text-anchor="middle" class="node-type">get_user_profile / get_user_orders / get_subscription_status</text>
  <text x="219.0" y="581.0" text-anchor="middle" class="node-title">Business tool calls</text>
  <rect x="430.0" y="536.0" width="188.0" height="78.0" rx="10.0" fill="#fef2f2" stroke="#fca5a5" stroke-width="1.8"/>
  <text x="524.0" y="554.0" text-anchor="middle" class="node-type">GUARDRAIL</text>
  <text x="524.0" y="581.0" text-anchor="middle" class="node-title">Refund / risk guard</text>
  <path d="M 736.0 554.0 L 757.6 554.0 L 767.32 536.0 L 790.0 536.0 L 934.0 536.0 L 934.0 614.0 L 736.0 614.0 Z" fill="#fff7ed" stroke="#fdba74" stroke-width="2.0" filter="url(#shadowSoft)"/>
  <line x1="758.0" y1="578.0" x2="912.0" y2="578.0" stroke="#fdba74" stroke-opacity="0.35" stroke-width="1.2"/>
  <line x1="758.0" y1="592.0" x2="912.0" y2="592.0" stroke="#fdba74" stroke-opacity="0.35" stroke-width="1.2"/>
  <line x1="758.0" y1="606.0" x2="912.0" y2="606.0" stroke="#fdba74" stroke-opacity="0.35" stroke-width="1.2"/>
  <text x="835.0" y="554.0" text-anchor="middle" class="node-type">ESCALATION</text>
  <text x="835.0" y="640.0" text-anchor="middle" class="node-title">create_ticket / handoff</text>
  <path d="M 458.0 694.0 L 626.0 694.0 Q 636.0 694.0 636.0 704.0 L 636.0 718.0 Q 636.0 728.0 626.0 728.0 L 474.0 728.0 L 460.0 746.0 L 464.0 728.0 L 458.0 728.0 Q 448.0 728.0 448.0 718.0 L 448.0 704.0 Q 448.0 694.0 458.0 694.0 Z" fill="#f0fdf4" stroke="#86efac" stroke-width="2.0"/>
  <text x="542.0" y="712.0" text-anchor="middle" class="node-type">RESULT</text>
  <text x="542.0" y="717.0" text-anchor="middle" class="node-title">Reply + decision log</text>
  <rect x="452.0" y="434.0" width="98" height="20" rx="6" fill="#ffffff" opacity="0.94"/>
  <text x="501.0" y="448.0" text-anchor="middle" class="arrow-label">load context</text>
  <rect x="651.5" y="416.0" width="98" height="20" rx="6" fill="#ffffff" opacity="0.94"/>
  <text x="700.5" y="430.0" text-anchor="middle" class="arrow-label">sensitive op</text>
  <rect x="628.0" y="545.0" width="98" height="20" rx="6" fill="#ffffff" opacity="0.94"/>
  <text x="677.0" y="559.0" text-anchor="middle" class="arrow-label">human review</text>
  <rect x="281.5" y="724.0" width="105" height="20" rx="6" fill="#ffffff" opacity="0.94"/>
  <text x="334.0" y="738.0" text-anchor="middle" class="arrow-label">answer enrich</text>
  <rect x="687.0" y="724.0" width="98" height="20" rx="6" fill="#ffffff" opacity="0.94"/>
  <text x="736.0" y="738.0" text-anchor="middle" class="arrow-label">ticket state</text>
  <rect x="909.0" y="728.0" width="219" height="156" rx="10" fill="#ffffff" opacity="0.88"/>
  <line x1="919.0" y1="742.0" x2="949.0" y2="742.0" stroke="#2563eb" stroke-width="2.4" marker-end="url(#arrowC)"/>
  <text x="959.0" y="746.0" class="legend">Primary decision path</text>
  <line x1="919.0" y1="764.0" x2="949.0" y2="764.0" stroke="#f97316" stroke-width="2.4" marker-end="url(#arrowE)"/>
  <text x="959.0" y="768.0" class="legend">FAQ / tool context</text>
  <line x1="919.0" y1="786.0" x2="949.0" y2="786.0" stroke="#10b981" stroke-width="2.4" marker-end="url(#arrowB)"/>
  <text x="959.0" y="790.0" class="legend">Context-fed answer</text>
  <line x1="919.0" y1="808.0" x2="949.0" y2="808.0" stroke="#7c3aed" stroke-width="2.4" marker-end="url(#arrowA)"/>
  <text x="959.0" y="812.0" class="legend">Structured output</text>
  <line x1="919.0" y1="830.0" x2="949.0" y2="830.0" stroke="#ef4444" stroke-width="2.4" marker-end="url(#arrowG)"/>
  <text x="959.0" y="834.0" class="legend">Risk escalation</text>
  <line x1="919.0" y1="852.0" x2="949.0" y2="852.0" stroke="#7c3aed" stroke-width="2.4" marker-end="url(#arrowA)"/>
  <text x="959.0" y="856.0" class="legend">Async status update</text>
</svg>