<svg xmlns="http://www.w3.org/2000/svg" viewBox="0 0 1180 820" width="1180" height="820">
  <defs>
    <marker id="arrowA" markerWidth="10" markerHeight="7" refX="9" refY="3.5" orient="auto">
      <polygon points="0 0, 10 3.5, 0 7" fill="#7c3aed"/>
    </marker>
    <marker id="arrowB" markerWidth="10" markerHeight="7" refX="9" refY="3.5" orient="auto">
      <polygon points="0 0, 10 3.5, 0 7" fill="#10b981"/>
    </marker>
    <marker id="arrowC" markerWidth="10" markerHeight="7" refX="9" refY="3.5" orient="auto">
      <polygon points="0 0, 10 3.5, 0 7" fill="#2563eb"/>
    </marker>
    <marker id="arrowE" markerWidth="10" markerHeight="7" refX="9" refY="3.5" orient="auto">
      <polygon points="0 0, 10 3.5, 0 7" fill="#f97316"/>
    </marker>
    <marker id="arrowF" markerWidth="10" markerHeight="7" refX="9" refY="3.5" orient="auto">
      <polygon points="0 0, 10 3.5, 0 7" fill="#7c3aed"/>
    </marker>
    <marker id="arrowG" markerWidth="10" markerHeight="7" refX="9" refY="3.5" orient="auto">
      <polygon points="0 0, 10 3.5, 0 7" fill="#ef4444"/>
    </marker>
    <marker id="arrowH" markerWidth="10" markerHeight="7" refX="9" refY="3.5" orient="auto">
      <polygon points="0 0, 10 3.5, 0 7" fill="#6b7280"/>
    </marker>
    <filter id="shadowSoft" x="-20%" y="-20%" width="140%" height="160%">
      <feDropShadow dx="0" dy="3" stdDeviation="6" flood-color="#0f172a" flood-opacity="0.12"/>
    </filter>
    <filter id="shadowGlass" x="-20%" y="-20%" width="140%" height="160%">
      <feDropShadow dx="0" dy="10" stdDeviation="16" flood-color="#020617" flood-opacity="0.28"/>
    </filter>
    <style>
    text { font-family: 'Helvetica Neue', Helvetica, Arial, 'PingFang SC', 'Microsoft YaHei', 'Microsoft JhengHei', 'SimHei', sans-serif; }
    .title { font-size: 30px; font-weight: 700; fill: #111827; }
    .subtitle { font-size: 14px; font-weight: 500; fill: #6b7280; }
    .section { font-size: 13px; font-weight: 700; fill: #2563eb; letter-spacing: 1.4px; }
    .section-sub { font-size: 12px; font-weight: 500; fill: #94a3b8; }
    .node-title { font-size: 18px; font-weight: 700; fill: #111827; }
    .node-sub { font-size: 12px; font-weight: 500; fill: #6b7280; }
    .node-type { font-size: 12px; font-weight: 700; fill: #9ca3af; letter-spacing: 0.08em; }
    .arrow-label { font-size: 12px; font-weight: 600; fill: #6b7280; }
    .legend { font-size: 12px; font-weight: 500; fill: #6b7280; }
    .footnote { font-size: 12px; font-weight: 500; fill: #94a3b8; }
    </style>
  </defs>
  <rect width="1180.0" height="820.0" fill="#ffffff"/>
  <text x="590.0" y="56" text-anchor="middle" class="title">API Example Flow</text>
  <text x="590.0" y="82" text-anchor="middle" class="subtitle">Representative request flow across session creation, message handling, ticket handoff, and feedback</text>
  <rect x="40.0" y="110.0" width="1080.0" height="660.0" rx="16.0" fill="none" stroke="#dbe5f1" stroke-width="1.4" stroke-dasharray="6 5"/>
  <text x="58.0" y="134.0" class="section">HTTP FLOW</text>
  <path d="M 238.0,358.0 L 316.0,358.0 L 316.0,195.0" fill="none" stroke="#2563eb" stroke-width="2.4" marker-end="url(#arrowC)"/>
  <path d="M 510.0,195.0 L 510.0,194.0 L 584.0,194.0 L 584.0,195.0" fill="none" stroke="#7c3aed" stroke-width="2.4" marker-end="url(#arrowA)"/>
  <path d="M 792.0,195.0 L 792.0,194.0 L 884.0,194.0 L 884.0,195.0" fill="none" stroke="#f97316" stroke-width="2.4" marker-end="url(#arrowE)"/>
  <path d="M 240.0,442.0 L 316.0,442.0 L 316.0,195.0" fill="none" stroke="#2563eb" stroke-width="2.4" marker-end="url(#arrowC)"/>
  <path d="M 510.0,195.0 L 510.0,260.0 L 584.0,260.0 L 584.0,195.0" fill="none" stroke="#7c3aed" stroke-width="2.4" marker-end="url(#arrowA)"/>
  <path d="M 792.0,195.0 L 792.0,260.0 L 884.0,260.0 L 884.0,195.0" fill="none" stroke="#10b981" stroke-width="2.4" marker-end="url(#arrowB)" stroke-dasharray="6,4"/>
  <path d="M 240.0,526.0 L 316.0,526.0 L 316.0,195.0" fill="none" stroke="#ef4444" stroke-width="2.4" marker-end="url(#arrowG)"/>
  <path d="M 238.0,610.0 L 316.0,610.0 L 316.0,195.0" fill="none" stroke="#7c3aed" stroke-width="2.4" marker-end="url(#arrowA)"/>
  <path d="M 976.0,242.0 L 976.0,262.4 L 971.0,657.6 L 971.0,678.0" fill="none" stroke="#2563eb" stroke-width="2.4" marker-end="url(#arrowC)"/>
  <path d="M 882.0,701.0 L 882.0,700.0 L 234.0,700.0 L 234.0,238.0 L 156.0,238.0" fill="none" stroke="#7c3aed" stroke-width="2.4" marker-end="url(#arrowA)"/>
  <rect x="66.0" y="152.0" width="180.0" height="86.0" rx="10.0" fill="#111827" stroke="#475569" stroke-width="2.0" filter="url(#shadowSoft)"/>
  <rect x="66.0" y="152.0" width="180.0" height="18" rx="10.0" fill="#1f2937" opacity="0.95"/>
  <circle cx="82.0" cy="161.0" r="4" fill="#ef4444"/>
  <circle cx="96.0" cy="161.0" r="4" fill="#f59e0b"/>
  <circle cx="110.0" cy="161.0" r="4" fill="#10b981"/>
  <text x="84.0" y="196.0" font-size="28" font-weight="700" fill="#10b981">$</text>
  <text x="104.0" y="196.0" font-size="22" font-weight="500" fill="#6b7280">_</text>
  <text x="156.0" y="170.0" text-anchor="middle" class="node-type">CLIENT</text>
  <text x="156.0" y="224.0" text-anchor="middle" class="node-title">React Admin</text>
  <rect x="316.0" y="158.0" width="194.0" height="74.0" rx="10.0" fill="#eff6ff" stroke="#93c5fd" stroke-width="2.0" filter="url(#shadowSoft)"/>
  <rect x="322.0" y="164.0" width="182.0" height="62.0" rx="7.0" fill="none" stroke="#93c5fd" stroke-width="1.2" opacity="0.65"/>
  <text x="413.0" y="176.0" text-anchor="middle" class="node-type">HTTP</text>
  <text x="413.0" y="201.0" text-anchor="middle" class="node-title">FastAPI Router</text>
  <rect x="584.0" y="158.0" width="208.0" height="74.0" rx="10.0" fill="#faf5ff" stroke="#c4b5fd" stroke-width="2.0" filter="url(#shadowSoft)"/>
  <rect x="590.0" y="164.0" width="196.0" height="62.0" rx="7.0" fill="none" stroke="#c4b5fd" stroke-width="1.2" opacity="0.65"/>
  <text x="688.0" y="176.0" text-anchor="middle" class="node-type">ORCHESTRATION</text>
  <text x="688.0" y="201.0" text-anchor="middle" class="node-title">SupportService</text>
  <ellipse cx="976.0" cy="159.75" rx="46.0" ry="11.75" fill="#eff6ff" stroke="#93c5fd" stroke-width="2.2"/>
  <rect x="884.0" y="159.75" width="184.0" height="70.5" fill="#eff6ff" stroke="#93c5fd" stroke-width="2.2"/>
  <ellipse cx="976.0" cy="230.25" rx="46.0" ry="11.75" fill="#eff6ff" stroke="#93c5fd" stroke-width="2.2"/>
  <ellipse cx="976.0" cy="183.72" rx="46.0" ry="11.75" fill="none" stroke="#93c5fd" stroke-opacity="0.45" stroke-width="1.2"/>
  <ellipse cx="976.0" cy="204.4" rx="46.0" ry="11.75" fill="none" stroke="#93c5fd" stroke-opacity="0.25" stroke-width="1.2"/>
  <text x="976.0" y="189.0" text-anchor="middle" class="node-title">SQLite + FAQ</text>
  <text x="976.0" y="213.0" text-anchor="middle" class="node-sub">repo / seed / decisions</text>
  <path d="M 98.0 334.0 L 228.0 334.0 Q 238.0 334.0 238.0 344.0 L 238.0 372.0 Q 238.0 382.0 228.0 382.0 L 114.0 382.0 L 100.0 400.0 L 104.0 382.0 L 98.0 382.0 Q 88.0 382.0 88.0 372.0 L 88.0 344.0 Q 88.0 334.0 98.0 334.0 Z" fill="#f0fdf4" stroke="#86efac" stroke-width="2.0"/>
  <text x="163.0" y="352.0" text-anchor="middle" class="node-type">CREATE</text>
  <text x="163.0" y="364.0" text-anchor="middle" class="node-title">POST /api/chat/sessions</text>
  <path d="M 80.0 418.0 L 230.0 418.0 Q 240.0 418.0 240.0 428.0 L 240.0 456.0 Q 240.0 466.0 230.0 466.0 L 96.0 466.0 L 82.0 484.0 L 86.0 466.0 L 80.0 466.0 Q 70.0 466.0 70.0 456.0 L 70.0 428.0 Q 70.0 418.0 80.0 418.0 Z" fill="#f0fdf4" stroke="#86efac" stroke-width="2.0"/>
  <text x="155.0" y="436.0" text-anchor="middle" class="node-type">SEND</text>
  <text x="155.0" y="448.0" text-anchor="middle" class="node-title">POST /messages</text>
  <path d="M 82.0 502.0 L 230.0 502.0 Q 240.0 502.0 240.0 512.0 L 240.0 540.0 Q 240.0 550.0 230.0 550.0 L 98.0 550.0 L 84.0 568.0 L 88.0 550.0 L 82.0 550.0 Q 72.0 550.0 72.0 540.0 L 72.0 512.0 Q 72.0 502.0 82.0 502.0 Z" fill="#fff7ed" stroke="#fdba74" stroke-width="2.0"/>
  <text x="156.0" y="520.0" text-anchor="middle" class="node-type">HANDOFF</text>
  <text x="156.0" y="532.0" text-anchor="middle" class="node-title">POST /tickets/{id}/handoff</text>
  <path d="M 84.0 586.0 L 228.0 586.0 Q 238.0 586.0 238.0 596.0 L 238.0 624.0 Q 238.0 634.0 228.0 634.0 L 100.0 634.0 L 86.0 652.0 L 90.0 634.0 L 84.0 634.0 Q 74.0 634.0 74.0 624.0 L 74.0 596.0 Q 74.0 586.0 84.0 586.0 Z" fill="#eff6ff" stroke="#93c5fd" stroke-width="2.0"/>
  <text x="156.0" y="604.0" text-anchor="middle" class="node-type">RATE</text>
  <text x="156.0" y="616.0" text-anchor="middle" class="node-title">POST /feedback</text>
  <path d="M 892.0 678.0 L 1050.0 678.0 Q 1060.0 678.0 1060.0 688.0 L 1060.0 714.0 Q 1060.0 724.0 1050.0 724.0 L 908.0 724.0 L 894.0 742.0 L 898.0 724.0 L 892.0 724.0 Q 882.0 724.0 882.0 714.0 L 882.0 688.0 Q 882.0 678.0 892.0 678.0 Z" fill="#f0fdf4" stroke="#86efac" stroke-width="2.0"/>
  <text x="971.0" y="696.0" text-anchor="middle" class="node-type">JSON</text>
  <text x="971.0" y="707.0" text-anchor="middle" class="node-title">Unified payload: session / messages / context / decision / ticket</text>
  <rect x="466.5" y="180.0" width="161" height="20" rx="6" fill="#ffffff" opacity="0.94"/>
  <text x="547.0" y="194.0" text-anchor="middle" class="arrow-label">create_or_get_session</text>
  <rect x="757.5" y="180.0" width="161" height="20" rx="6" fill="#ffffff" opacity="0.94"/>
  <text x="838.0" y="194.0" text-anchor="middle" class="arrow-label">users / conversations</text>
  <rect x="498.0" y="262.0" width="98" height="20" rx="6" fill="#ffffff" opacity="0.94"/>
  <text x="547.0" y="276.0" text-anchor="middle" class="arrow-label">send_message</text>
  <rect x="726.0" y="262.0" width="224" height="20" rx="6" fill="#ffffff" opacity="0.94"/>
  <text x="838.0" y="276.0" text-anchor="middle" class="arrow-label">messages / decisions / tickets</text>
  <rect x="910.5" y="430.0" width="126" height="20" rx="6" fill="#ffffff" opacity="0.94"/>
  <text x="973.5" y="444.0" text-anchor="middle" class="arrow-label">response payload</text>
  <rect x="516.0" y="670.0" width="84" height="20" rx="6" fill="#ffffff" opacity="0.94"/>
  <text x="558.0" y="684.0" text-anchor="middle" class="arrow-label">UI refresh</text>
  <rect x="32.0" y="772.0" width="324" height="156" rx="10" fill="#ffffff" opacity="0.88"/>
  <line x1="42.0" y1="786.0" x2="72.0" y2="786.0" stroke="#2563eb" stroke-width="2.4" marker-end="url(#arrowC)"/>
  <text x="82.0" y="790.0" class="legend">Client request / query</text>
  <line x1="42.0" y1="808.0" x2="72.0" y2="808.0" stroke="#7c3aed" stroke-width="2.4" marker-end="url(#arrowA)"/>
  <text x="82.0" y="812.0" class="legend">Route to service layer</text>
  <line x1="42.0" y1="830.0" x2="72.0" y2="830.0" stroke="#f97316" stroke-width="2.4" marker-end="url(#arrowE)"/>
  <text x="82.0" y="834.0" class="legend">Read context</text>
  <line x1="42.0" y1="852.0" x2="72.0" y2="852.0" stroke="#10b981" stroke-width="2.4" marker-end="url(#arrowB)"/>
  <text x="82.0" y="856.0" class="legend">Write messages / tickets / decisions</text>
  <line x1="42.0" y1="874.0" x2="72.0" y2="874.0" stroke="#ef4444" stroke-width="2.4" marker-end="url(#arrowG)"/>
  <text x="82.0" y="878.0" class="legend">Human handoff</text>
  <line x1="42.0" y1="896.0" x2="72.0" y2="896.0" stroke="#7c3aed" stroke-width="2.4" marker-end="url(#arrowA)"/>
  <text x="82.0" y="900.0" class="legend">Feedback rating</text>
</svg>