<svg xmlns="http://www.w3.org/2000/svg" viewBox="0 0 1280 760" width="1280" height="760">
  <defs>
    <marker id="arrowA" markerWidth="10" markerHeight="7" refX="9" refY="3.5" orient="auto">
      <polygon points="0 0, 10 3.5, 0 7" fill="#7c3aed"/>
    </marker>
    <marker id="arrowB" markerWidth="10" markerHeight="7" refX="9" refY="3.5" orient="auto">
      <polygon points="0 0, 10 3.5, 0 7" fill="#10b981"/>
    </marker>
    <marker id="arrowC" markerWidth="10" markerHeight="7" refX="9" refY="3.5" orient="auto">
      <polygon points="0 0, 10 3.5, 0 7" fill="#2563eb"/>
    </marker>
    <marker id="arrowE" markerWidth="10" markerHeight="7" refX="9" refY="3.5" orient="auto">
      <polygon points="0 0, 10 3.5, 0 7" fill="#f97316"/>
    </marker>
    <marker id="arrowF" markerWidth="10" markerHeight="7" refX="9" refY="3.5" orient="auto">
      <polygon points="0 0, 10 3.5, 0 7" fill="#7c3aed"/>
    </marker>
    <marker id="arrowG" markerWidth="10" markerHeight="7" refX="9" refY="3.5" orient="auto">
      <polygon points="0 0, 10 3.5, 0 7" fill="#ef4444"/>
    </marker>
    <marker id="arrowH" markerWidth="10" markerHeight="7" refX="9" refY="3.5" orient="auto">
      <polygon points="0 0, 10 3.5, 0 7" fill="#6b7280"/>
    </marker>
    <filter id="shadowSoft" x="-20%" y="-20%" width="140%" height="160%">
      <feDropShadow dx="0" dy="3" stdDeviation="6" flood-color="#0f172a" flood-opacity="0.12"/>
    </filter>
    <filter id="shadowGlass" x="-20%" y="-20%" width="140%" height="160%">
      <feDropShadow dx="0" dy="10" stdDeviation="16" flood-color="#020617" flood-opacity="0.28"/>
    </filter>
    <style>
    text { font-family: 'Helvetica Neue', Helvetica, Arial, 'PingFang SC', 'Microsoft YaHei', 'Microsoft JhengHei', 'SimHei', sans-serif; }
    .title { font-size: 30px; font-weight: 700; fill: #111827; }
    .subtitle { font-size: 14px; font-weight: 500; fill: #6b7280; }
    .section { font-size: 13px; font-weight: 700; fill: #2563eb; letter-spacing: 1.4px; }
    .section-sub { font-size: 12px; font-weight: 500; fill: #94a3b8; }
    .node-title { font-size: 18px; font-weight: 700; fill: #111827; }
    .node-sub { font-size: 12px; font-weight: 500; fill: #6b7280; }
    .node-type { font-size: 12px; font-weight: 700; fill: #9ca3af; letter-spacing: 0.08em; }
    .arrow-label { font-size: 12px; font-weight: 600; fill: #6b7280; }
    .legend { font-size: 12px; font-weight: 500; fill: #6b7280; }
    .footnote { font-size: 12px; font-weight: 500; fill: #94a3b8; }
    </style>
  </defs>
  <rect width="1280.0" height="760.0" fill="#ffffff"/>
  <text x="640.0" y="56" text-anchor="middle" class="title">Dashboard Preview</text>
  <text x="640.0" y="82" text-anchor="middle" class="subtitle">Three-panel admin workspace for conversations, chat handling, and support context</text>
  <rect x="44.0" y="120.0" width="230.0" height="580.0" rx="16.0" fill="none" stroke="#dbe5f1" stroke-width="1.4" stroke-dasharray="6 5"/>
  <text x="62.0" y="144.0" class="section">SESSIONS</text>
  <rect x="294.0" y="120.0" width="486.0" height="580.0" rx="16.0" fill="none" stroke="#dbe5f1" stroke-width="1.4" stroke-dasharray="6 5"/>
  <text x="312.0" y="144.0" class="section">CHAT WINDOW</text>
  <rect x="800.0" y="120.0" width="436.0" height="580.0" rx="16.0" fill="none" stroke="#dbe5f1" stroke-width="1.4" stroke-dasharray="6 5"/>
  <text x="818.0" y="144.0" class="section">CONTEXT + ACTIONS</text>
  <path d="M 252.0,196.0 L 272.4,196.0 L 301.6,199.0 L 322.0,199.0" fill="none" stroke="#2563eb" stroke-width="2.4" marker-end="url(#arrowC)"/>
  <path d="M 752.0,199.0 L 752.0,198.0 L 830.0,198.0 L 830.0,338.0" fill="none" stroke="#7c3aed" stroke-width="2.4" marker-end="url(#arrowA)"/>
  <path d="M 1018.0,282.0 L 1018.0,268.0 L 918.0,268.0 L 918.0,244.0" fill="none" stroke="#f97316" stroke-width="2.4" marker-end="url(#arrowE)"/>
  <path d="M 1018.0,282.0 L 1018.0,268.0 L 1116.0,268.0 L 1116.0,244.0" fill="none" stroke="#10b981" stroke-width="2.4" marker-end="url(#arrowB)"/>
  <path d="M 1018.0,394.0 L 1018.0,406.0 L 918.0,406.0 L 918.0,430.0" fill="none" stroke="#ef4444" stroke-width="2.4" marker-end="url(#arrowG)"/>
  <path d="M 1006.0,477.0 L 1026.0,477.0" fill="none" stroke="#7c3aed" stroke-width="2.4" marker-end="url(#arrowA)"/>
  <rect x="66.0" y="158.0" width="186.0" height="76.0" rx="10.0" fill="#eff6ff" stroke="#93c5fd" stroke-width="1.8"/>
  <text x="159.0" y="176.0" text-anchor="middle" class="node-type">active · billing_issue</text>
  <text x="159.0" y="202.0" text-anchor="middle" class="node-title">Alex Chen</text>
  <text x="159.0" y="224.0" text-anchor="middle" class="node-sub">last message: modify plan</text>
  <rect x="66.0" y="254.0" width="186.0" height="76.0" rx="10.0" fill="#fff7ed" stroke="#fdba74" stroke-width="1.8"/>
  <text x="159.0" y="272.0" text-anchor="middle" class="node-type">needs_handoff</text>
  <text x="159.0" y="298.0" text-anchor="middle" class="node-title">Jordan Lee</text>
  <text x="159.0" y="320.0" text-anchor="middle" class="node-sub">refund request</text>
  <rect x="66.0" y="350.0" width="186.0" height="76.0" rx="10.0" fill="#f0fdf4" stroke="#86efac" stroke-width="1.8"/>
  <text x="159.0" y="368.0" text-anchor="middle" class="node-type">resolved</text>
  <text x="159.0" y="394.0" text-anchor="middle" class="node-title">Taylor Smith</text>
  <text x="159.0" y="416.0" text-anchor="middle" class="node-sub">password reset</text>
  <rect x="322.0" y="154.0" width="430.0" height="90.0" rx="10.0" fill="#111827" stroke="#475569" stroke-width="2.0" filter="url(#shadowSoft)"/>
  <rect x="322.0" y="154.0" width="430.0" height="18" rx="10.0" fill="#1f2937" opacity="0.95"/>
  <circle cx="338.0" cy="163.0" r="4" fill="#ef4444"/>
  <circle cx="352.0" cy="163.0" r="4" fill="#f59e0b"/>
  <circle cx="366.0" cy="163.0" r="4" fill="#10b981"/>
  <text x="340.0" y="198.0" font-size="28" font-weight="700" fill="#10b981">$</text>
  <text x="360.0" y="198.0" font-size="22" font-weight="500" fill="#6b7280">_</text>
  <text x="537.0" y="230.0" text-anchor="middle" class="node-title">Conversation #1</text>
  <text x="537.0" y="264.0" text-anchor="middle" class="node-sub">customer-support-agent · live session</text>
  <path d="M 346.0 286.0 L 514.0 286.0 Q 524.0 286.0 524.0 296.0 L 524.0 338.0 Q 524.0 348.0 514.0 348.0 L 362.0 348.0 L 348.0 366.0 L 352.0 348.0 L 346.0 348.0 Q 336.0 348.0 336.0 338.0 L 336.0 296.0 Q 336.0 286.0 346.0 286.0 Z" fill="#eff6ff" stroke="#93c5fd" stroke-width="2.0"/>
  <text x="430.0" y="304.0" text-anchor="middle" class="node-type">USER</text>
  <text x="430.0" y="323.0" text-anchor="middle" class="node-title">How can I change my plan?</text>
  <path d="M 548.0 366.0 L 724.0 366.0 Q 734.0 366.0 734.0 376.0 L 734.0 434.0 Q 734.0 444.0 724.0 444.0 L 564.0 444.0 L 550.0 462.0 L 554.0 444.0 L 548.0 444.0 Q 538.0 444.0 538.0 434.0 L 538.0 376.0 Q 538.0 366.0 548.0 366.0 Z" fill="#f0fdf4" stroke="#86efac" stroke-width="2.0"/>
  <text x="636.0" y="384.0" text-anchor="middle" class="node-type">AGENT</text>
  <text x="636.0" y="411.0" text-anchor="middle" class="node-title">I can use your current subscription info to help…</text>
  <rect x="336.0" y="598.0" width="398.0" height="62.0" rx="10.0" fill="#ffffff" stroke="#d1d5db" stroke-width="1.8"/>
  <text x="535.0" y="616.0" text-anchor="middle" class="node-type">COMPOSER</text>
  <text x="535.0" y="635.0" text-anchor="middle" class="node-title">Ask about billing, login, invoices, refunds…</text>
  <rect x="830.0" y="158.0" width="176.0" height="86.0" rx="10.0" fill="#ffffff" stroke="#d1d5db" stroke-width="1.8"/>
  <text x="918.0" y="176.0" text-anchor="middle" class="node-type">Alex Chen · Northwind Labs</text>
  <text x="918.0" y="207.0" text-anchor="middle" class="node-title">User Profile</text>
  <text x="918.0" y="229.0" text-anchor="middle" class="node-sub">Plan: Pro · locale: zh-CN</text>
  <rect x="1026.0" y="158.0" width="180.0" height="86.0" rx="10.0" fill="#ffffff" stroke="#d1d5db" stroke-width="1.8"/>
  <text x="1116.0" y="176.0" text-anchor="middle" class="node-type">Pro · active</text>
  <text x="1116.0" y="207.0" text-anchor="middle" class="node-title">Subscription</text>
  <text x="1116.0" y="229.0" text-anchor="middle" class="node-sub">renewal: 2026-05-14</text>
  <rect x="830.0" y="282.0" width="376.0" height="112.0" rx="10.0" fill="#faf5ff" stroke="#c4b5fd" stroke-width="2.0" filter="url(#shadowSoft)"/>
  <rect x="836.0" y="288.0" width="364.0" height="100.0" rx="7.0" fill="none" stroke="#c4b5fd" stroke-width="1.2" opacity="0.65"/>
  <text x="1018.0" y="300.0" text-anchor="middle" class="node-type">intent: billing_issue · risk: low</text>
  <text x="1018.0" y="344.0" text-anchor="middle" class="node-title">Agent Decision</text>
  <text x="1018.0" y="366.0" text-anchor="middle" class="node-sub">tools: get_user_orders, get_subscription_status</text>
  <path d="M 830.0 448.0 L 851.6 448.0 L 861.32 430.0 L 884.0 430.0 L 1006.0 430.0 L 1006.0 524.0 L 830.0 524.0 Z" fill="#fff7ed" stroke="#fdba74" stroke-width="2.0" filter="url(#shadowSoft)"/>
  <line x1="852.0" y1="472.0" x2="984.0" y2="472.0" stroke="#fdba74" stroke-opacity="0.35" stroke-width="1.2"/>
  <line x1="852.0" y1="486.0" x2="984.0" y2="486.0" stroke="#fdba74" stroke-opacity="0.35" stroke-width="1.2"/>
  <line x1="852.0" y1="500.0" x2="984.0" y2="500.0" stroke="#fdba74" stroke-opacity="0.35" stroke-width="1.2"/>
  <text x="918.0" y="448.0" text-anchor="middle" class="node-type">no open ticket</text>
  <text x="918.0" y="550.0" text-anchor="middle" class="node-title">Ticket Status</text>
  <rect x="1026.0" y="430.0" width="180.0" height="94.0" rx="10.0" fill="#ffffff" stroke="#d1d5db" stroke-width="1.8"/>
  <text x="1116.0" y="448.0" text-anchor="middle" class="node-type">Human Takeover · Helpful · Needs Work</text>
  <text x="1116.0" y="483.0" text-anchor="middle" class="node-title">Actions</text>
  <text x="1116.0" y="505.0" text-anchor="middle" class="node-sub">feedback + escalation</text>
  <rect x="994.0" y="722.0" width="254" height="156" rx="10" fill="#ffffff" opacity="0.88"/>
  <line x1="1004.0" y1="736.0" x2="1034.0" y2="736.0" stroke="#2563eb" stroke-width="2.4" marker-end="url(#arrowC)"/>
  <text x="1044.0" y="740.0" class="legend">Session selection</text>
  <line x1="1004.0" y1="758.0" x2="1034.0" y2="758.0" stroke="#7c3aed" stroke-width="2.4" marker-end="url(#arrowA)"/>
  <text x="1044.0" y="762.0" class="legend">Message-driven decision</text>
  <line x1="1004.0" y1="780.0" x2="1034.0" y2="780.0" stroke="#f97316" stroke-width="2.4" marker-end="url(#arrowE)"/>
  <text x="1044.0" y="784.0" class="legend">User context</text>
  <line x1="1004.0" y1="802.0" x2="1034.0" y2="802.0" stroke="#10b981" stroke-width="2.4" marker-end="url(#arrowB)"/>
  <text x="1044.0" y="806.0" class="legend">Subscription context</text>
  <line x1="1004.0" y1="824.0" x2="1034.0" y2="824.0" stroke="#ef4444" stroke-width="2.4" marker-end="url(#arrowG)"/>
  <text x="1044.0" y="828.0" class="legend">Ticket status</text>
  <line x1="1004.0" y1="846.0" x2="1034.0" y2="846.0" stroke="#7c3aed" stroke-width="2.4" marker-end="url(#arrowA)"/>
  <text x="1044.0" y="850.0" class="legend">Handoff / feedback actions</text>
</svg>